<svg width="26" height="26" viewBox="0 0 26 26" fill="none" xmlns="http://www.w3.org/2000/svg">
<g clip-path="url(#clip0_7_434)" filter="url(#filter0_d_7_434)">
<path d="M16.139 1.46296C15.9141 1.75923 15.7377 2.09315 15.6195 2.45307C14.776 2.1972 13.8546 2.0604 12.8882 2.0604C8.6284 2.0604 5.23868 4.719 5.23868 7.99998C5.23868 10.151 6.68278 12.0241 9.12992 13.1601C9.54684 13.3534 9.59515 13.6616 9.40786 14.006C9.12992 14.5559 8.50756 15.3474 8.09064 15.855C8.04834 15.9093 8.06647 15.9456 8.12689 15.9275C8.82176 15.7039 10.2417 14.8942 11.287 14.1873C11.5468 13.9939 11.7764 13.9094 12.0604 13.9094C12.3927 13.9275 12.6707 13.9395 12.8882 13.9395C17.1481 13.9395 20.5378 11.2749 20.5378 7.99998C20.5378 7.6207 20.4925 7.24977 20.4011 6.89146C20.7578 6.7408 21.0857 6.53334 21.3712 6.2783C21.5526 6.82693 21.6435 7.40476 21.6435 7.99998C21.6435 12.1873 17.3595 15.2568 12.0665 15.003C10.5075 16.0725 8.46526 17.0332 7.46828 17.0332C6.73112 17.0332 6.5136 16.429 6.91239 15.9154C7.2568 15.4743 7.87916 14.6284 8.23566 13.9516C5.7704 12.7976 4.13898 10.5438 4.13898 7.99998C4.13898 4.10873 8.02417 0.960693 12.8882 0.960693C14.0409 0.960693 15.1384 1.13704 16.139 1.46296Z" fill="#FA586A"/>
<path d="M19.0211 6.20541C20.4532 6.20541 21.6435 5.02112 21.6435 3.58305C21.6435 2.14499 20.4532 0.960693 19.0211 0.960693C17.5831 0.960693 16.3987 2.14499 16.3987 3.58305C16.3987 5.02112 17.5831 6.20541 19.0211 6.20541Z" fill="#FA586A"/>
</g>
<defs>
<filter id="filter0_d_7_434" x="-0.604248" y="0" width="27.2084" height="26" filterUnits="userSpaceOnUse" color-interpolation-filters="sRGB">
<feFlood flood-opacity="0" result="BackgroundImageFix"/>
<feColorMatrix in="SourceAlpha" type="matrix" values="0 0 0 0 0 0 0 0 0 0 0 0 0 0 0 0 0 0 127 0" result="hardAlpha"/>
<feOffset dy="4"/>
<feGaussianBlur stdDeviation="2"/>
<feComposite in2="hardAlpha" operator="out"/>
<feColorMatrix type="matrix" values="0 0 0 0 0 0 0 0 0 0 0 0 0 0 0 0 0 0 0.25 0"/>
<feBlend mode="normal" in2="BackgroundImageFix" result="effect1_dropShadow_7_434"/>
<feBlend mode="normal" in="SourceGraphic" in2="effect1_dropShadow_7_434" result="shape"/>
</filter>
<clipPath id="clip0_7_434">
<rect width="19.2084" height="18" fill="white" transform="translate(3.39575)"/>
</clipPath>
</defs>
</svg>
