<svg width="12" height="13" viewBox="0 0 12 13" fill="none" xmlns="http://www.w3.org/2000/svg">
<g id="chart.bar.doc.horizontal 1" clip-path="url(#clip0_57_3205)">
<g id="Group">
<path id="Vector" d="M0 10.7434C0 11.9126 0.719023 12.4944 2.16405 12.4944H9.57764C11.0227 12.4944 11.7417 11.9126 11.7417 10.7434V2.25664C11.7417 1.09301 11.0227 0.5 9.57764 0.5H2.16405C0.719023 0.5 0 1.09301 0 2.25664V10.7434ZM1.12391 10.7266V2.27342C1.12391 1.71398 1.49389 1.4007 2.2199 1.4007H9.52181C10.2478 1.4007 10.6178 1.71398 10.6178 2.27342V10.7266C10.6178 11.286 10.2478 11.5937 9.52181 11.5937H2.2199C1.49389 11.5937 1.12391 11.286 1.12391 10.7266Z" fill="white" fill-opacity="0.92"/>
<path id="Vector_2" d="M2.57595 8.94189C2.28973 8.94189 2.12219 9.08735 2.12219 9.32233V10.2566C2.12219 10.4916 2.28973 10.637 2.57595 10.637H5.73127C6.00352 10.637 6.17804 10.4916 6.17804 10.2566V9.32233C6.17804 9.08735 6.00352 8.94189 5.73127 8.94189H2.57595Z" fill="white" fill-opacity="0.92"/>
<path id="Vector_3" d="M2.57595 6.7489C2.28973 6.7489 2.12219 6.88874 2.12219 7.11811V8.06357C2.12219 8.29856 2.28973 8.4384 2.57595 8.4384H8.02798C8.30719 8.4384 8.47475 8.29856 8.47475 8.06357V7.11811C8.47475 6.88874 8.30719 6.7489 8.02798 6.7489H2.57595Z" fill="white" fill-opacity="0.92"/>
<path id="Vector_4" d="M2.57595 4.55029C2.28973 4.55029 2.12219 4.69575 2.12219 4.92512V5.86497C2.12219 6.09434 2.28973 6.23978 2.57595 6.23978H9.17979C9.459 6.23978 9.62656 6.09434 9.62656 5.85938V4.92512C9.62656 4.69575 9.459 4.55029 9.17979 4.55029H2.57595Z" fill="white" fill-opacity="0.92"/>
<path id="Vector_5" d="M2.57595 2.35168C2.28973 2.35168 2.12219 2.49714 2.12219 2.7321V3.66637C2.12219 3.90133 2.28973 4.04679 2.57595 4.04679H6.85518C7.13441 4.04679 7.30192 3.90133 7.30192 3.66637V2.7321C7.30192 2.49714 7.13441 2.35168 6.85518 2.35168H2.57595Z" fill="white" fill-opacity="0.92"/>
</g>
</g>
<defs>
<clipPath id="clip0_57_3205">
<rect width="12" height="12" fill="white" transform="translate(0 0.5)"/>
</clipPath>
</defs>
</svg>
