<svg width="20" height="18" viewBox="0 0 20 18" fill="none" xmlns="http://www.w3.org/2000/svg">
<path d="M18.8466 3.04722V14.9724C18.8466 16.9843 17.782 18 15.6322 18H3.21448C1.0749 18 0 16.9941 0 14.9724V3.04722C0 1.0255 1.0749 0.0195312 3.21448 0.0195312H15.6322C17.782 0.0195312 18.8466 1.03527 18.8466 3.04722ZM8.53781 5.08845V8.14543H5.33357C4.80124 8.14543 4.43271 8.49703 4.43271 9.00491C4.43271 9.503 4.80124 9.83507 5.33357 9.83507H8.53781V12.9018C8.53781 13.3999 8.89612 13.7613 9.41822 13.7613C9.95055 13.7613 10.3191 13.4097 10.3191 12.9018V9.83507H13.5336C14.0557 9.83507 14.4344 9.503 14.4344 9.00491C14.4344 8.49703 14.0557 8.14543 13.5336 8.14543H10.3191V5.08845C10.3191 4.58059 9.95055 4.21922 9.41822 4.21922C8.89612 4.21922 8.53781 4.58059 8.53781 5.08845Z" fill="#FA586A"/>
</svg>
