<svg width="18" height="18" viewBox="0 0 18 18" fill="none" xmlns="http://www.w3.org/2000/svg">
<path d="M7.88693 12.3707C6.8761 13.2967 6.29235 14.5189 6.29235 15.7692C6.29235 16.0597 6.33428 16.3281 6.41279 16.5694H3.17246C2.04897 16.5694 1.43469 15.9632 1.43469 14.8074V14.39C1.92915 12.972 3.48324 11.8249 5.573 11.8249C6.45371 11.8249 7.23895 12.0274 7.88693 12.3707ZM7.61794 8.45442C7.61794 9.73961 6.6965 10.7176 5.58916 10.7176C4.48184 10.7176 3.55234 9.73961 3.55234 8.46253C3.55234 7.22584 4.48184 6.27213 5.58916 6.27213C6.68839 6.27213 7.61794 7.2097 7.61794 8.45442Z" fill="#FA586A"/>
<path d="M16.5653 13.7373V14.8074C16.5653 15.9632 15.9268 16.5694 14.8276 16.5694H7.68137C7.51203 16.3848 7.41577 16.1098 7.41577 15.7692C7.41577 13.797 9.4284 11.841 12.3624 11.841C14.2836 11.841 15.7934 12.6602 16.5653 13.7373ZM14.6902 7.98561C14.6902 9.4567 13.6395 10.5721 12.3704 10.5721C11.0934 10.5721 10.0265 9.4567 10.0265 8.00175C10.0265 6.58736 11.1014 5.47192 12.3704 5.47192C13.6232 5.47192 14.6902 6.56311 14.6902 7.98561Z" fill="#FA586A"/>
<path d="M3.14817 18H14.8518C16.9371 18 17.996 16.9412 17.996 14.8801V3.11178C17.996 1.05884 16.9371 0 14.8518 0H3.14817C1.05477 0 0.00402832 1.05073 0.00402832 3.11178V14.8801C0.00402832 16.9493 1.05477 18 3.14817 18ZM3.17242 16.5694C2.04893 16.5694 1.43466 15.9632 1.43466 14.8074V3.19264C1.43466 2.0287 2.04893 1.43063 3.17242 1.43063H14.8276C15.9268 1.43063 16.5653 2.0287 16.5653 3.19264V14.8074C16.5653 15.9632 15.9268 16.5694 14.8276 16.5694H3.17242Z" fill="#FA586A"/>
</svg>
