<svg width="20" height="18" viewBox="0 0 20 18" fill="none" xmlns="http://www.w3.org/2000/svg">
<path d="M11.5082 15.3807H7.41573V10.1381C7.41573 9.7733 7.66159 9.53534 8.02643 9.53534H10.9055C11.2704 9.53534 11.5082 9.7733 11.5082 10.1381V15.3807ZM2.47456 14.9049C2.47456 16.0073 3.14078 16.6577 4.25909 16.6577H14.6887C15.807 16.6577 16.4653 16.0073 16.4653 14.9049V8.62328L9.9458 3.15862C9.64441 2.90482 9.28747 2.91276 8.99403 3.15862L2.47456 8.62328V14.9049ZM0 7.83013C0 8.15531 0.2538 8.46467 0.682088 8.46467C0.904162 8.46467 1.08658 8.34568 1.25314 8.21087L9.19236 1.54858C9.36681 1.38996 9.58098 1.38996 9.75543 1.54858L17.6946 8.21087C17.8532 8.34568 18.0357 8.46467 18.2578 8.46467C18.6306 8.46467 18.9319 8.23466 18.9319 7.85393C18.9319 7.61599 18.8526 7.45737 18.686 7.3146L10.4296 0.374752C9.84266 -0.124917 9.11301 -0.124917 8.51819 0.374752L0.2538 7.3146C0.0793125 7.45737 0 7.64771 0 7.83013ZM14.4746 4.25314L16.4653 5.93456V2.27032C16.4653 1.92135 16.2432 1.69928 15.8942 1.69928H15.0456C14.7046 1.69928 14.4746 1.92135 14.4746 2.27032V4.25314Z" fill="#FA586A"/>
</svg>
