<svg width="14" height="14" viewBox="0 0 14 14" fill="none" xmlns="http://www.w3.org/2000/svg">
<path d="M0 5.66244C0 8.78455 2.54029 11.3248 5.66244 11.3248C6.89711 11.3248 8.02532 10.9275 8.95487 10.2605L12.446 13.7587C12.6092 13.922 12.8221 14 13.0492 14C13.5316 14 13.8651 13.6381 13.8651 13.1627C13.8651 12.9356 13.78 12.7298 13.631 12.5809L10.1612 9.08973C10.892 8.13889 11.3248 6.95387 11.3248 5.66244C11.3248 2.54029 8.78455 0 5.66244 0C2.54029 0 0 2.54029 0 5.66244ZM1.21338 5.66244C1.21338 3.20729 3.20729 1.21338 5.66244 1.21338C8.1176 1.21338 10.1115 3.20729 10.1115 5.66244C10.1115 8.1176 8.1176 10.1115 5.66244 10.1115C3.20729 10.1115 1.21338 8.1176 1.21338 5.66244Z" fill="white" fill-opacity="0.64"/>
</svg>
