<svg width="9" height="12" viewBox="0 0 9 12" fill="none" xmlns="http://www.w3.org/2000/svg">
<g id="share.svg" clip-path="url(#clip0_57_3138)">
<g id="Group">
<path id="Vector" d="M8.83626 4.87791V9.29548C8.83626 10.2073 8.37148 10.6677 7.44637 10.6677H2.36927C1.44414 10.6677 0.97937 10.2073 0.97937 9.29548V4.87791C0.97937 3.96608 1.44414 3.50574 2.36927 3.50574H3.70161V4.21839H2.37812C1.93548 4.21839 1.69202 4.45741 1.69202 4.91776V9.25564C1.69202 9.71597 1.93548 9.95502 2.37812 9.95502H7.43309C7.8713 9.95502 8.12359 9.71597 8.12359 9.25564V4.91776C8.12359 4.45741 7.8713 4.21839 7.43309 4.21839H6.114V3.50574H7.44637C8.37148 3.50574 8.83626 3.96608 8.83626 4.87791Z" fill="white" fill-opacity="0.64"/>
<path id="Vector_2" d="M4.90557 7.20179C5.09591 7.20179 5.25968 7.04242 5.25968 6.85654V2.31059L5.23313 1.64663L5.52971 1.96091L6.20249 2.67798C6.2645 2.74881 6.35302 2.78422 6.44155 2.78422C6.62303 2.78422 6.76468 2.65143 6.76468 2.46994C6.76468 2.37699 6.72484 2.30617 6.65843 2.23977L5.16231 0.796758C5.07377 0.708231 4.99853 0.677246 4.90557 0.677246C4.81704 0.677246 4.74179 0.708231 4.64884 0.796758L3.15271 2.23977C3.08632 2.30617 3.0509 2.37699 3.0509 2.46994C3.0509 2.65143 3.1837 2.78422 3.36961 2.78422C3.45371 2.78422 3.55109 2.74881 3.61306 2.67798L4.28145 1.96091L4.58244 1.64663L4.55588 2.31059V6.85654C4.55588 7.04242 4.71524 7.20179 4.90557 7.20179Z" fill="white" fill-opacity="0.64"/>
</g>
</g>
<defs>
<clipPath id="clip0_57_3138">
<rect width="8.02065" height="12" fill="white" transform="translate(0.97937)"/>
</clipPath>
</defs>
</svg>
